<svg width="20" height="20" viewBox="0 0 20 20" fill="none" xmlns="http://www.w3.org/2000/svg">
<circle cx="10" cy="10" r="9" fill="#30A46C"/>
<path d="M13.5672 8.56719L9.19219 12.9422C9.13415 13.0003 9.06522 13.0464 8.98934 13.0779C8.91347 13.1093 8.83214 13.1255 8.75 13.1255C8.66787 13.1255 8.58654 13.1093 8.51067 13.0779C8.43479 13.0464 8.36586 13.0003 8.30782 12.9422L6.43282 11.0672C6.31554 10.9499 6.24966 10.7909 6.24966 10.625C6.24966 10.4591 6.31554 10.3001 6.43282 10.1828C6.55009 10.0655 6.70915 9.99965 6.875 9.99965C7.04086 9.99965 7.19992 10.0655 7.31719 10.1828L8.75 11.6164L12.6828 7.68281C12.7409 7.62474 12.8098 7.57868 12.8857 7.54725C12.9616 7.51583 13.0429 7.49965 13.125 7.49965C13.2071 7.49965 13.2884 7.51583 13.3643 7.54725C13.4402 7.57868 13.5091 7.62474 13.5672 7.68281C13.6253 7.74088 13.6713 7.80982 13.7027 7.88569C13.7342 7.96156 13.7504 8.04288 13.7504 8.125C13.7504 8.20712 13.7342 8.28844 13.7027 8.36431C13.6713 8.44018 13.6253 8.50912 13.5672 8.56719Z" fill="white"/>
</svg>
